HIERARCHY
ROOT hip
{
	OFFSET 0.000000 0.000000 0.000000 
	CHANNELS 6 Xposition Yposition Zposition Xrotation Zrotation Yrotation
	JOINT abdomen
	{
		OFFSET 0.000000 3.402643 0.000000 
		CHANNELS 3 Xrotation Zrotation Yrotation
		JOINT chest
		{
			OFFSET 0.000000 8.438565 -0.680529 
			CHANNELS 3 Xrotation Zrotation Yrotation
			JOINT neck
			{
				OFFSET 0.000000 10.207942 -0.272212 
				CHANNELS 3 Xrotation Zrotation Yrotation
				JOINT head
				{
					OFFSET 0.000000 3.130431 0.000000 
					CHANNELS 3 Xrotation Zrotation Yrotation
					End Site
					{
						OFFSET 0.000000 3.130435 0.000000 
					}
				}
			}
			JOINT lCollar
			{
				OFFSET 3.470700 6.669187 -0.816635 
				CHANNELS 3 Yrotation Zrotation Xrotation
				JOINT lShldr
				{
					OFFSET 3.198488 0.000000 0.000000 
					CHANNELS 3 Zrotation Yrotation Xrotation
					JOINT lForeArm
					{
						OFFSET 10.139888 0.000000 0.000000 
						CHANNELS 3 Yrotation Zrotation Xrotation
						JOINT lHand
						{
							OFFSET 8.370511 0.000000 0.000000 
							CHANNELS 3 Zrotation Yrotation Xrotation
							End Site
							{
								OFFSET 4.083176 0.000000 0.000000 
							}
						}
					}
				}
			}
			JOINT rCollar
			{
				OFFSET -3.470700 6.669187 -0.816635 
				CHANNELS 3 Yrotation Zrotation Xrotation
				JOINT rShldr
				{
					OFFSET -3.198488 0.000000 0.000000 
					CHANNELS 3 Zrotation Yrotation Xrotation
					JOINT rForeArm
					{
						OFFSET -10.139888 0.000000 0.000000 
						CHANNELS 3 Yrotation Zrotation Xrotation
						JOINT rHand
						{
							OFFSET -8.370511 0.000000 0.000000 
							CHANNELS 3 Zrotation Yrotation Xrotation
							End Site
							{
								OFFSET -4.083176 0.000000 0.000000 
							}
						}
					}
				}
			}
		}
	}
	JOINT lThigh
	{
		OFFSET 5.308129 -1.633274 1.361059 
		CHANNELS 3 Xrotation Zrotation Yrotation
		JOINT lShin
		{
			OFFSET -2.041588 -20.007561 0.000000 
			CHANNELS 3 Xrotation Zrotation Yrotation
			JOINT lFoot
			{
				OFFSET 0.000000 -19.190928 -1.224953 
				CHANNELS 3 Xrotation Yrotation Zrotation
				End Site
				{
					OFFSET 0.000000 -2.449906 4.627600 
				}
			}
		}
	}
	JOINT rThigh
	{
		OFFSET -5.308129 -1.633274 1.361059 
		CHANNELS 3 Xrotation Zrotation Yrotation
		JOINT rShin
		{
			OFFSET 2.041588 -20.007561 0.000000 
			CHANNELS 3 Xrotation Zrotation Yrotation
			JOINT rFoot
			{
				OFFSET 0.000000 -19.190928 -1.224953 
				CHANNELS 3 Xrotation Yrotation Zrotation
				End Site
				{
					OFFSET 0.000000 -2.449906 4.627600 
				}
			}
		}
	}
}
MOTION
Frames: 11
Frame Time: 0.016667
-0.551855 44.645638 0.189769 11.383700 -1.953030 -3.742850 -16.442801 -2.944630 -3.417510 18.358400 -1.737000 -1.896260 18.474800 -2.578460 6.823860 12.664800 5.225030 3.862050 2.000000 -2.000000 0.000000 -93.671700 -36.537300 -156.464996 28.721001 -0.334745 0.065758 0.044642 -0.001696 -137.526993 -2.000000 2.000000 0.000000 79.642799 23.954700 -127.929001 -119.267998 0.152782 0.100990 -0.054417 -0.002461 -136.042999 -27.702160 6.775852 3.806944 40.250626 2.112046 3.020081 -13.041001 -0.088764 1.002306 -21.604652 7.100089 10.783303 21.970251 -1.913226 -2.103559 -18.541916 -29.800203 -12.002493 
-0.484553 44.683933 0.441384 11.705600 -1.874280 -3.904000 -16.406300 -3.078610 -3.358430 18.270500 -1.668590 -1.886550 18.073099 -2.660450 7.041760 12.537200 5.217380 3.956470 2.000000 -2.000000 0.000000 -93.282600 -36.938900 -157.014999 27.832300 -0.335749 0.063891 0.044634 0.000574 -136.716995 -2.000000 2.000000 0.000000 80.639503 23.389000 -128.399002 -118.623001 0.154031 0.101682 -0.054408 -0.001777 -136.287003 -28.367727 6.834303 3.144839 37.420094 2.221182 2.856055 -14.580570 3.120415 1.938168 -21.492968 6.931787 10.899718 21.491907 -1.883656 -2.089710 -18.346560 -29.797144 -11.969716 
-0.320291 44.746506 0.740164 11.998900 -1.900930 -4.476300 -16.459200 -3.079610 -3.194150 18.182600 -1.668490 -1.805870 17.908400 -2.991640 7.209690 12.457200 5.122000 4.042520 2.000000 -2.000000 0.000000 -93.009903 -36.570702 -158.324997 27.431900 -0.336192 0.063044 0.044645 0.001968 -136.218994 -2.000000 2.000000 0.000000 81.697098 22.590799 -130.128006 -118.233002 0.154792 0.102094 -0.054417 0.002407 -137.781006 -28.744759 6.774451 1.008781 34.309032 2.359695 2.630922 -14.184990 6.126132 2.813177 -21.120420 6.833899 11.099688 20.608860 -1.857478 -2.017744 -17.766869 -29.718935 -11.701188 
-0.156028 44.809227 1.038945 12.292200 -1.927470 -5.058660 -16.511999 -3.080580 -3.029780 18.094700 -1.668380 -1.725180 17.743900 -3.322670 7.389420 12.377200 5.016920 4.137170 2.000000 -2.000000 0.000000 -92.756599 -36.202499 -159.634003 27.031500 -0.336629 0.062195 0.044668 0.003363 -135.720993 -2.000000 2.000000 0.000000 82.783897 21.822001 -131.863998 -117.842003 0.155556 0.102500 -0.054534 0.006589 -139.274994 -29.076532 6.704057 -1.135396 31.110975 2.450114 2.423992 -13.797318 9.131100 3.656782 -20.741385 6.728245 11.320940 19.746902 -1.826206 -1.974105 -17.217230 -29.626438 -11.446878 
0.085580 44.862675 1.401992 12.421000 -2.145880 -5.999880 -16.546301 -2.933280 -2.746870 18.114100 -1.717190 -1.577190 18.145800 -3.461200 7.567590 12.504800 5.024670 4.227830 2.000000 -2.000000 0.000000 -92.326202 -35.432899 -160.445999 26.719000 -0.336966 0.061530 0.044666 0.003281 -135.750000 -2.000000 2.000000 0.000000 83.569199 21.093599 -134.278000 -117.431999 0.156362 0.102922 -0.055083 0.014801 -142.214996 -29.046247 6.725029 -4.828463 28.454729 2.577727 2.210124 -13.457775 11.318673 4.214066 -20.005672 6.768937 11.436907 18.562473 -1.778376 -1.925941 -16.148460 -29.366020 -10.916212 
0.327187 44.916138 1.765035 12.550000 -2.373610 -6.954360 -16.580000 -2.785960 -2.464510 18.143400 -1.775770 -1.419350 18.538401 -3.608240 7.741190 12.632200 5.022730 4.326840 2.000000 -2.000000 0.000000 -91.905502 -34.663200 -161.238998 26.406500 -0.337300 0.060863 0.044665 0.003226 -135.768997 -2.000000 2.000000 0.000000 84.383598 20.404301 -136.701004 -117.022003 0.157170 0.103338 -0.056049 0.022947 -145.143997 -28.973547 6.758694 -8.539505 25.682037 2.656723 2.019800 -13.041583 13.486169 4.736678 -19.326902 6.811407 11.535090 17.504051 -1.731512 -1.846863 -15.180065 -29.146952 -10.388185 
0.648050 44.917549 2.189280 12.481500 -2.364700 -8.267780 -16.595400 -2.696540 -2.114280 18.309401 -1.824770 -1.246800 19.029900 -3.790780 7.898130 12.788700 5.001020 4.425440 2.000000 -2.000000 0.000000 -91.014603 -33.393799 -161.326004 26.865499 -0.336809 0.061842 0.044644 0.001886 -136.248001 -2.000000 2.000000 0.000000 84.571999 19.997400 -138.554001 -116.582001 0.158039 0.103777 -0.057191 0.029798 -147.625000 -28.644447 6.666111 -11.049502 24.068909 2.714693 1.881410 -12.751931 13.979430 4.820221 -18.716032 6.545258 11.339439 16.990479 -1.744262 -1.802065 -14.232345 -28.201542 -9.643189 
0.968912 44.918831 2.613514 12.403300 -2.365410 -9.592680 -16.610001 -2.607090 -1.764510 18.465700 -1.883510 -1.073860 19.512199 -3.972070 8.051200 12.945300 4.979270 4.523930 2.000000 -2.000000 0.000000 -90.153099 -32.124401 -161.386993 27.314800 -0.336321 0.062796 0.044634 0.000546 -136.725998 -2.000000 2.000000 0.000000 84.779800 19.590599 -140.399994 -116.153000 0.158892 0.104199 -0.058635 0.036620 -150.115005 -28.360979 6.561428 -13.558424 22.444847 2.764627 1.749601 -12.435538 14.438580 4.881333 -18.081432 6.290024 11.161427 16.448761 -1.745701 -1.766428 -13.298487 -27.275661 -8.913360 
1.365584 44.901749 3.056958 12.206800 -2.243090 -11.383600 -16.674601 -2.550850 -1.280640 18.543699 -1.981200 -0.838626 19.841499 -4.167170 8.143790 13.062000 4.919560 4.593290 2.000000 -2.000000 0.000000 -89.163696 -30.453600 -161.009995 28.662399 -0.334812 0.065635 0.044643 -0.001805 -137.565994 -2.000000 2.000000 0.000000 84.244202 19.397200 -141.406006 -116.690002 0.157826 0.103670 -0.059832 0.041394 -151.873001 -28.103569 6.578141 -12.552538 22.722775 2.755855 1.782669 -10.223186 14.376541 4.304207 -17.565744 6.094399 12.335932 16.462460 -1.795412 -1.752757 -13.258859 -26.933432 -8.726830 
1.762261 44.884525 3.500402 12.010300 -2.120560 -13.165900 -16.728201 -2.500530 -0.785357 18.612000 -2.078880 -0.593539 20.181101 -4.361230 8.233020 13.169000 4.869650 4.653360 2.000000 -2.000000 0.000000 -88.174599 -28.792601 -160.613007 30.010099 -0.333236 0.068438 0.044687 -0.004184 -138.416000 -2.000000 2.000000 0.000000 83.708504 19.203699 -142.412994 -117.237000 0.156746 0.103121 -0.061183 0.046156 -153.639999 -27.869005 6.589360 -11.565946 23.050411 2.737791 1.803869 -8.055479 14.303904 3.698791 -17.081198 5.905536 13.513634 16.543045 -1.850019 -1.709329 -13.226268 -26.622608 -8.517782 
2.190775 44.836330 3.965088 11.628100 -1.970460 -15.122300 -16.760500 -2.421360 -0.268348 18.612000 -2.098400 -0.338971 20.402700 -4.536640 8.340080 13.246900 4.839500 4.723660 2.000000 -2.000000 0.000000 -87.360603 -26.749901 -159.889999 32.607800 -0.330016 0.073733 0.044780 -0.006863 -139.373001 -2.000000 2.000000 0.000000 82.791100 19.155600 -142.774002 -118.740997 0.153803 0.101557 -0.071543 0.057856 -154.363007 -27.473225 6.526063 -9.078584 24.867779 2.708220 1.936190 -8.252585 14.624642 3.804635 -16.530724 5.632526 14.922153 16.808355 -1.931443 -1.694370 -13.157696 -26.273285 -8.255046 
